<svg width="421" height="250" viewBox="0 0 421 250" fill="none" xmlns="http://www.w3.org/2000/svg">
<mask id="mask0" mask-type="alpha" maskUnits="userSpaceOnUse" x="0" y="154" width="421" height="39">
<rect width="421" height="39" transform="matrix(1 0 0 -1 0 193)" fill="#F1FAFF"/>
</mask>
<g mask="url(#mask0)">
<path d="M158.925 -64.6814C176.11 -105.456 233.89 -105.456 251.075 -64.6814L264.723 -32.2998C270.362 -18.9198 281.539 -8.65196 295.349 -4.16565L312.624 1.44648C358.692 16.4128 358.692 81.5872 312.624 96.5535L295.349 102.166C281.539 106.652 270.362 116.92 264.723 130.3L251.075 162.681C233.89 203.456 176.11 203.456 158.925 162.681L145.277 130.3C139.638 116.92 128.461 106.652 114.651 102.166L97.3762 96.5535C51.308 81.5872 51.3079 16.4128 97.3762 1.44649L114.651 -4.16564C128.461 -8.65196 139.638 -18.9198 145.277 -32.2998L158.925 -64.6814Z" fill="#E1F1F9"/>
</g>
<path d="M175.195 76.2765C185.799 49.1386 224.201 49.1386 234.805 76.2765L235.5 78.0546C238.77 86.4237 245.531 92.9485 254.011 95.9199C281.509 105.556 281.509 144.445 254.011 154.081C245.531 157.052 238.77 163.577 235.5 171.946L234.805 173.724C224.201 200.862 185.799 200.862 175.195 173.724L174.5 171.946C171.23 163.577 164.469 157.052 155.989 154.081C128.491 144.445 128.491 105.556 155.989 95.9199C164.469 92.9485 171.23 86.4237 174.5 78.0546L175.195 76.2765Z" fill="#EEF9FF"/>
</svg>
